<svg width="22" height="15" viewBox="0 0 22 15" fill="none" xmlns="http://www.w3.org/2000/svg">
<path d="M9 9H13M18 5.59998V10.8C18 11.9201 18.0002 12.4801 17.7822 12.908C17.5905 13.2843 17.2841 13.5902 16.9078 13.782C16.48 14 15.9203 14 14.8002 14H7.2002C6.08009 14 5.51962 14 5.0918 13.782C4.71548 13.5902 4.40974 13.2843 4.21799 12.908C4 12.4801 4 11.9201 4 10.8V5.59998C4 5.03992 4 4.75993 4.109 4.54602C4.20487 4.35786 4.35774 4.20487 4.5459 4.10899C4.75981 4 5.03956 4 5.59961 4H16.3996C16.9597 4 17.2405 4 17.4544 4.10899C17.6425 4.20487 17.7948 4.35786 17.8906 4.54602C17.9996 4.75993 18 5.03992 18 5.59998ZM18.0219 4H3.97754C3.12696 4 2.70213 4.00001 2.46094 3.85144C2.13935 3.65335 1.95702 3.29098 1.98926 2.91466C2.01344 2.63242 2.26617 2.29064 2.77246 1.60715C2.91891 1.40945 2.99213 1.3106 3.08177 1.23511C3.20128 1.13446 3.3431 1.06322 3.49512 1.02709C3.60913 1 3.73151 1 3.97754 1H18.0219C18.268 1 18.3915 1 18.5055 1.02709C18.6575 1.06322 18.7985 1.13446 18.918 1.23511C19.0076 1.31059 19.0811 1.40949 19.2275 1.60718C19.7338 2.29066 19.987 2.63242 20.0112 2.91466C20.0434 3.29098 19.8611 3.65335 19.5395 3.85144C19.2983 4.00001 18.8725 4 18.0219 4Z" stroke="white" stroke-width="2" stroke-linecap="round" stroke-linejoin="round"/>
</svg>
