<svg width="20" height="18" viewBox="0 0 20 18" fill="none" xmlns="http://www.w3.org/2000/svg">
<path d="M1 3L19 3M12 8L14 10L12 12M8 12L6 10L8 8M1 13.8V4.20001C1 3.07991 1 2.51986 1.21799 2.09204C1.40973 1.71572 1.71547 1.40973 2.0918 1.21799C2.51962 1 3.08009 1 4.2002 1H15.8002C16.9203 1 17.48 1 17.9078 1.21799C18.2841 1.40973 18.5905 1.71572 18.7822 2.09204C19.0002 2.51986 19 3.07991 19 4.20001V13.8C19 14.9201 19.0002 15.4801 18.7822 15.908C18.5905 16.2843 18.2841 16.5903 17.9078 16.782C17.48 17 16.9203 17 15.8002 17L4.2002 17C3.08009 17 2.51962 17 2.0918 16.782C1.71547 16.5903 1.40973 16.2843 1.21799 15.908C1 15.4801 1 14.9201 1 13.8Z" stroke="white" stroke-width="2" stroke-linecap="round" stroke-linejoin="round"/>
</svg>
